<mxfile host="app.diagrams.net" agent="Mozilla/5.0 (Windows NT 10.0; Win64; x64) AppleWebKit/537.36 (KHTML, like Gecko) Chrome/127.0.0.0 Safari/537.36" version="24.7.8">
  <diagram name="Page-1" id="8ce9d11a-91a2-4d17-14d8-a56ed91bf033">
    <mxGraphModel dx="1434" dy="1596" grid="1" gridSize="10" guides="1" tooltips="1" connect="1" arrows="1" fold="1" page="1" pageScale="1" pageWidth="1100" pageHeight="850" background="none" math="0" shadow="0">
      <root>
        <mxCell id="0" />
        <mxCell id="1" parent="0" />
        <mxCell id="5HY_IgYF3L0pl0gXSFe1-53" value="" style="edgeStyle=orthogonalEdgeStyle;rounded=0;orthogonalLoop=1;jettySize=auto;html=1;" edge="1" parent="1" source="5HY_IgYF3L0pl0gXSFe1-50" target="5HY_IgYF3L0pl0gXSFe1-51">
          <mxGeometry relative="1" as="geometry" />
        </mxCell>
        <mxCell id="5HY_IgYF3L0pl0gXSFe1-50" value="" style="rounded=0;whiteSpace=wrap;html=1;shadow=0;" vertex="1" parent="1">
          <mxGeometry x="120" y="390" width="580" height="100" as="geometry" />
        </mxCell>
        <mxCell id="5HY_IgYF3L0pl0gXSFe1-14" style="edgeStyle=orthogonalEdgeStyle;rounded=0;orthogonalLoop=1;jettySize=auto;html=1;exitX=0.5;exitY=1;exitDx=0;exitDy=0;exitPerimeter=0;entryX=0.5;entryY=0;entryDx=0;entryDy=0;" edge="1" parent="1" source="5HY_IgYF3L0pl0gXSFe1-1" target="5HY_IgYF3L0pl0gXSFe1-4">
          <mxGeometry relative="1" as="geometry" />
        </mxCell>
        <mxCell id="5HY_IgYF3L0pl0gXSFe1-1" value="计算评分及状态" style="strokeWidth=2;html=1;shape=mxgraph.flowchart.start_1;whiteSpace=wrap;" vertex="1" parent="1">
          <mxGeometry x="194" y="-220" width="100" height="60" as="geometry" />
        </mxCell>
        <mxCell id="5HY_IgYF3L0pl0gXSFe1-16" style="edgeStyle=orthogonalEdgeStyle;rounded=0;orthogonalLoop=1;jettySize=auto;html=1;" edge="1" parent="1" source="5HY_IgYF3L0pl0gXSFe1-2">
          <mxGeometry relative="1" as="geometry">
            <mxPoint x="244" y="-40" as="targetPoint" />
          </mxGeometry>
        </mxCell>
        <mxCell id="5HY_IgYF3L0pl0gXSFe1-17" style="edgeStyle=orthogonalEdgeStyle;rounded=0;orthogonalLoop=1;jettySize=auto;html=1;exitX=1;exitY=0.5;exitDx=0;exitDy=0;exitPerimeter=0;entryX=0;entryY=0.5;entryDx=0;entryDy=0;" edge="1" parent="1" source="5HY_IgYF3L0pl0gXSFe1-2" target="5HY_IgYF3L0pl0gXSFe1-3">
          <mxGeometry relative="1" as="geometry" />
        </mxCell>
        <mxCell id="5HY_IgYF3L0pl0gXSFe1-29" value="Y" style="edgeLabel;html=1;align=center;verticalAlign=middle;resizable=0;points=[];" vertex="1" connectable="0" parent="5HY_IgYF3L0pl0gXSFe1-17">
          <mxGeometry x="0.0667" relative="1" as="geometry">
            <mxPoint as="offset" />
          </mxGeometry>
        </mxCell>
        <mxCell id="5HY_IgYF3L0pl0gXSFe1-19" value="" style="edgeStyle=orthogonalEdgeStyle;rounded=0;orthogonalLoop=1;jettySize=auto;html=1;" edge="1" parent="1" source="5HY_IgYF3L0pl0gXSFe1-2" target="5HY_IgYF3L0pl0gXSFe1-6">
          <mxGeometry relative="1" as="geometry" />
        </mxCell>
        <mxCell id="5HY_IgYF3L0pl0gXSFe1-30" value="N" style="edgeLabel;html=1;align=center;verticalAlign=middle;resizable=0;points=[];" vertex="1" connectable="0" parent="5HY_IgYF3L0pl0gXSFe1-19">
          <mxGeometry x="-0.381" relative="1" as="geometry">
            <mxPoint as="offset" />
          </mxGeometry>
        </mxCell>
        <mxCell id="5HY_IgYF3L0pl0gXSFe1-2" value="种子进程已退出？" style="strokeWidth=2;html=1;shape=mxgraph.flowchart.decision;whiteSpace=wrap;" vertex="1" parent="1">
          <mxGeometry x="184" y="-37" width="120" height="60" as="geometry" />
        </mxCell>
        <mxCell id="5HY_IgYF3L0pl0gXSFe1-18" value="" style="edgeStyle=orthogonalEdgeStyle;rounded=0;orthogonalLoop=1;jettySize=auto;html=1;" edge="1" parent="1" source="5HY_IgYF3L0pl0gXSFe1-3" target="5HY_IgYF3L0pl0gXSFe1-5">
          <mxGeometry relative="1" as="geometry" />
        </mxCell>
        <mxCell id="5HY_IgYF3L0pl0gXSFe1-3" value="busy=red" style="rounded=1;whiteSpace=wrap;html=1;absoluteArcSize=1;arcSize=14;strokeWidth=2;" vertex="1" parent="1">
          <mxGeometry x="364" y="-32" width="100" height="50" as="geometry" />
        </mxCell>
        <mxCell id="5HY_IgYF3L0pl0gXSFe1-15" style="edgeStyle=orthogonalEdgeStyle;rounded=0;orthogonalLoop=1;jettySize=auto;html=1;" edge="1" parent="1" source="5HY_IgYF3L0pl0gXSFe1-4">
          <mxGeometry relative="1" as="geometry">
            <mxPoint x="244" y="-50" as="targetPoint" />
          </mxGeometry>
        </mxCell>
        <mxCell id="5HY_IgYF3L0pl0gXSFe1-4" value="score=无效评分" style="rounded=1;whiteSpace=wrap;html=1;absoluteArcSize=1;arcSize=14;strokeWidth=2;" vertex="1" parent="1">
          <mxGeometry x="194" y="-123" width="100" height="50" as="geometry" />
        </mxCell>
        <mxCell id="5HY_IgYF3L0pl0gXSFe1-5" value="完成" style="strokeWidth=2;html=1;shape=mxgraph.flowchart.terminator;whiteSpace=wrap;" vertex="1" parent="1">
          <mxGeometry x="536" y="-27" width="100" height="40" as="geometry" />
        </mxCell>
        <mxCell id="5HY_IgYF3L0pl0gXSFe1-20" value="" style="edgeStyle=orthogonalEdgeStyle;rounded=0;orthogonalLoop=1;jettySize=auto;html=1;" edge="1" parent="1" source="5HY_IgYF3L0pl0gXSFe1-6" target="5HY_IgYF3L0pl0gXSFe1-7">
          <mxGeometry relative="1" as="geometry" />
        </mxCell>
        <mxCell id="5HY_IgYF3L0pl0gXSFe1-31" value="Y" style="edgeLabel;html=1;align=center;verticalAlign=middle;resizable=0;points=[];" vertex="1" connectable="0" parent="5HY_IgYF3L0pl0gXSFe1-20">
          <mxGeometry x="0.0333" y="2" relative="1" as="geometry">
            <mxPoint as="offset" />
          </mxGeometry>
        </mxCell>
        <mxCell id="5HY_IgYF3L0pl0gXSFe1-22" value="" style="edgeStyle=orthogonalEdgeStyle;rounded=0;orthogonalLoop=1;jettySize=auto;html=1;" edge="1" parent="1" source="5HY_IgYF3L0pl0gXSFe1-6" target="5HY_IgYF3L0pl0gXSFe1-9">
          <mxGeometry relative="1" as="geometry" />
        </mxCell>
        <mxCell id="5HY_IgYF3L0pl0gXSFe1-32" value="N" style="edgeLabel;html=1;align=center;verticalAlign=middle;resizable=0;points=[];" vertex="1" connectable="0" parent="5HY_IgYF3L0pl0gXSFe1-22">
          <mxGeometry x="-0.3778" y="2" relative="1" as="geometry">
            <mxPoint as="offset" />
          </mxGeometry>
        </mxCell>
        <mxCell id="5HY_IgYF3L0pl0gXSFe1-6" value="开发模式？" style="strokeWidth=2;html=1;shape=mxgraph.flowchart.decision;whiteSpace=wrap;" vertex="1" parent="1">
          <mxGeometry x="184" y="65" width="120" height="60" as="geometry" />
        </mxCell>
        <mxCell id="5HY_IgYF3L0pl0gXSFe1-21" value="" style="edgeStyle=orthogonalEdgeStyle;rounded=0;orthogonalLoop=1;jettySize=auto;html=1;" edge="1" parent="1" source="5HY_IgYF3L0pl0gXSFe1-7" target="5HY_IgYF3L0pl0gXSFe1-8">
          <mxGeometry relative="1" as="geometry" />
        </mxCell>
        <mxCell id="5HY_IgYF3L0pl0gXSFe1-7" value="&lt;div&gt;score=1&lt;/div&gt;busy=green" style="rounded=1;whiteSpace=wrap;html=1;absoluteArcSize=1;arcSize=14;strokeWidth=2;" vertex="1" parent="1">
          <mxGeometry x="364" y="70" width="100" height="50" as="geometry" />
        </mxCell>
        <mxCell id="5HY_IgYF3L0pl0gXSFe1-8" value="完成" style="strokeWidth=2;html=1;shape=mxgraph.flowchart.terminator;whiteSpace=wrap;" vertex="1" parent="1">
          <mxGeometry x="536" y="75" width="100" height="40" as="geometry" />
        </mxCell>
        <mxCell id="5HY_IgYF3L0pl0gXSFe1-23" value="" style="edgeStyle=orthogonalEdgeStyle;rounded=0;orthogonalLoop=1;jettySize=auto;html=1;" edge="1" parent="1" source="5HY_IgYF3L0pl0gXSFe1-9" target="5HY_IgYF3L0pl0gXSFe1-11">
          <mxGeometry relative="1" as="geometry" />
        </mxCell>
        <mxCell id="5HY_IgYF3L0pl0gXSFe1-33" value="Y" style="edgeLabel;html=1;align=center;verticalAlign=middle;resizable=0;points=[];" vertex="1" connectable="0" parent="5HY_IgYF3L0pl0gXSFe1-23">
          <mxGeometry x="-0.2174" y="-1" relative="1" as="geometry">
            <mxPoint as="offset" />
          </mxGeometry>
        </mxCell>
        <mxCell id="5HY_IgYF3L0pl0gXSFe1-36" value="" style="edgeStyle=orthogonalEdgeStyle;rounded=0;orthogonalLoop=1;jettySize=auto;html=1;" edge="1" parent="1" source="5HY_IgYF3L0pl0gXSFe1-9" target="5HY_IgYF3L0pl0gXSFe1-28">
          <mxGeometry relative="1" as="geometry" />
        </mxCell>
        <mxCell id="5HY_IgYF3L0pl0gXSFe1-37" value="N" style="edgeLabel;html=1;align=center;verticalAlign=middle;resizable=0;points=[];" vertex="1" connectable="0" parent="5HY_IgYF3L0pl0gXSFe1-36">
          <mxGeometry x="-0.175" y="-1" relative="1" as="geometry">
            <mxPoint as="offset" />
          </mxGeometry>
        </mxCell>
        <mxCell id="5HY_IgYF3L0pl0gXSFe1-9" value="cpu或memory&lt;div&gt;使用超过request&lt;/div&gt;" style="strokeWidth=2;html=1;shape=mxgraph.flowchart.decision;whiteSpace=wrap;" vertex="1" parent="1">
          <mxGeometry x="164" y="170" width="160" height="60" as="geometry" />
        </mxCell>
        <mxCell id="5HY_IgYF3L0pl0gXSFe1-10" value="&lt;div&gt;&lt;span style=&quot;background-color: initial;&quot;&gt;busy=black&lt;/span&gt;&lt;br&gt;&lt;/div&gt;" style="rounded=1;whiteSpace=wrap;html=1;absoluteArcSize=1;arcSize=14;strokeWidth=2;" vertex="1" parent="1">
          <mxGeometry x="610" y="270" width="100" height="50" as="geometry" />
        </mxCell>
        <mxCell id="5HY_IgYF3L0pl0gXSFe1-24" value="" style="edgeStyle=orthogonalEdgeStyle;rounded=0;orthogonalLoop=1;jettySize=auto;html=1;" edge="1" parent="1" source="5HY_IgYF3L0pl0gXSFe1-11" target="5HY_IgYF3L0pl0gXSFe1-12">
          <mxGeometry relative="1" as="geometry" />
        </mxCell>
        <mxCell id="5HY_IgYF3L0pl0gXSFe1-34" value="Y" style="edgeLabel;html=1;align=center;verticalAlign=middle;resizable=0;points=[];" vertex="1" connectable="0" parent="5HY_IgYF3L0pl0gXSFe1-24">
          <mxGeometry x="0.025" y="1" relative="1" as="geometry">
            <mxPoint as="offset" />
          </mxGeometry>
        </mxCell>
        <mxCell id="5HY_IgYF3L0pl0gXSFe1-25" style="edgeStyle=orthogonalEdgeStyle;rounded=0;orthogonalLoop=1;jettySize=auto;html=1;entryX=0;entryY=0.75;entryDx=0;entryDy=0;exitX=0.5;exitY=1;exitDx=0;exitDy=0;exitPerimeter=0;" edge="1" parent="1" source="5HY_IgYF3L0pl0gXSFe1-11" target="5HY_IgYF3L0pl0gXSFe1-10">
          <mxGeometry relative="1" as="geometry" />
        </mxCell>
        <mxCell id="5HY_IgYF3L0pl0gXSFe1-35" value="N" style="edgeLabel;html=1;align=center;verticalAlign=middle;resizable=0;points=[];" vertex="1" connectable="0" parent="5HY_IgYF3L0pl0gXSFe1-25">
          <mxGeometry x="0.1632" y="2" relative="1" as="geometry">
            <mxPoint x="1" y="1" as="offset" />
          </mxGeometry>
        </mxCell>
        <mxCell id="5HY_IgYF3L0pl0gXSFe1-11" value="cpu或memory&lt;div&gt;使用超过&lt;/div&gt;&lt;div&gt;(request+limit)/2&lt;/div&gt;" style="strokeWidth=2;html=1;shape=mxgraph.flowchart.decision;whiteSpace=wrap;" vertex="1" parent="1">
          <mxGeometry x="370" y="150" width="160" height="100" as="geometry" />
        </mxCell>
        <mxCell id="5HY_IgYF3L0pl0gXSFe1-26" value="" style="edgeStyle=orthogonalEdgeStyle;rounded=0;orthogonalLoop=1;jettySize=auto;html=1;" edge="1" parent="1" source="5HY_IgYF3L0pl0gXSFe1-12" target="5HY_IgYF3L0pl0gXSFe1-13">
          <mxGeometry relative="1" as="geometry" />
        </mxCell>
        <mxCell id="5HY_IgYF3L0pl0gXSFe1-12" value="&lt;div&gt;&lt;span style=&quot;background-color: initial;&quot;&gt;busy=red&lt;/span&gt;&lt;br&gt;&lt;/div&gt;" style="rounded=1;whiteSpace=wrap;html=1;absoluteArcSize=1;arcSize=14;strokeWidth=2;" vertex="1" parent="1">
          <mxGeometry x="610" y="175" width="100" height="50" as="geometry" />
        </mxCell>
        <mxCell id="5HY_IgYF3L0pl0gXSFe1-13" value="完成" style="strokeWidth=2;html=1;shape=mxgraph.flowchart.terminator;whiteSpace=wrap;" vertex="1" parent="1">
          <mxGeometry x="790" y="180" width="100" height="40" as="geometry" />
        </mxCell>
        <mxCell id="5HY_IgYF3L0pl0gXSFe1-27" style="edgeStyle=orthogonalEdgeStyle;rounded=0;orthogonalLoop=1;jettySize=auto;html=1;entryX=0.5;entryY=1;entryDx=0;entryDy=0;entryPerimeter=0;" edge="1" parent="1" source="5HY_IgYF3L0pl0gXSFe1-10" target="5HY_IgYF3L0pl0gXSFe1-13">
          <mxGeometry relative="1" as="geometry" />
        </mxCell>
        <mxCell id="5HY_IgYF3L0pl0gXSFe1-42" value="" style="edgeStyle=orthogonalEdgeStyle;rounded=0;orthogonalLoop=1;jettySize=auto;html=1;" edge="1" parent="1" source="5HY_IgYF3L0pl0gXSFe1-28" target="5HY_IgYF3L0pl0gXSFe1-40">
          <mxGeometry relative="1" as="geometry" />
        </mxCell>
        <mxCell id="5HY_IgYF3L0pl0gXSFe1-52" value="" style="edgeStyle=orthogonalEdgeStyle;rounded=0;orthogonalLoop=1;jettySize=auto;html=1;" edge="1" parent="1" source="5HY_IgYF3L0pl0gXSFe1-28" target="5HY_IgYF3L0pl0gXSFe1-45">
          <mxGeometry relative="1" as="geometry" />
        </mxCell>
        <mxCell id="5HY_IgYF3L0pl0gXSFe1-28" value="已分配的ForkedServer达到上限" style="strokeWidth=2;html=1;shape=mxgraph.flowchart.decision;whiteSpace=wrap;" vertex="1" parent="1">
          <mxGeometry x="184" y="315" width="120" height="60" as="geometry" />
        </mxCell>
        <mxCell id="5HY_IgYF3L0pl0gXSFe1-38" value="Y" style="edgeLabel;html=1;align=center;verticalAlign=middle;resizable=0;points=[];" vertex="1" connectable="0" parent="1">
          <mxGeometry x="324" y="345" as="geometry" />
        </mxCell>
        <mxCell id="5HY_IgYF3L0pl0gXSFe1-39" value="" style="edgeStyle=orthogonalEdgeStyle;rounded=0;orthogonalLoop=1;jettySize=auto;html=1;" edge="1" parent="1" source="5HY_IgYF3L0pl0gXSFe1-40" target="5HY_IgYF3L0pl0gXSFe1-41">
          <mxGeometry relative="1" as="geometry" />
        </mxCell>
        <mxCell id="5HY_IgYF3L0pl0gXSFe1-40" value="busy=red" style="rounded=1;whiteSpace=wrap;html=1;absoluteArcSize=1;arcSize=14;strokeWidth=2;" vertex="1" parent="1">
          <mxGeometry x="352" y="320" width="100" height="50" as="geometry" />
        </mxCell>
        <mxCell id="5HY_IgYF3L0pl0gXSFe1-41" value="完成" style="strokeWidth=2;html=1;shape=mxgraph.flowchart.terminator;whiteSpace=wrap;" vertex="1" parent="1">
          <mxGeometry x="524" y="325" width="100" height="40" as="geometry" />
        </mxCell>
        <mxCell id="5HY_IgYF3L0pl0gXSFe1-43" value="N" style="edgeLabel;html=1;align=center;verticalAlign=middle;resizable=0;points=[];" vertex="1" connectable="0" parent="1">
          <mxGeometry x="519.5" y="400" as="geometry" />
        </mxCell>
        <mxCell id="5HY_IgYF3L0pl0gXSFe1-44" value="" style="edgeStyle=orthogonalEdgeStyle;rounded=0;orthogonalLoop=1;jettySize=auto;html=1;" edge="1" parent="1" source="5HY_IgYF3L0pl0gXSFe1-45" target="5HY_IgYF3L0pl0gXSFe1-48">
          <mxGeometry relative="1" as="geometry" />
        </mxCell>
        <mxCell id="5HY_IgYF3L0pl0gXSFe1-55" value="" style="edgeStyle=orthogonalEdgeStyle;rounded=0;orthogonalLoop=1;jettySize=auto;html=1;" edge="1" parent="1" source="5HY_IgYF3L0pl0gXSFe1-45" target="5HY_IgYF3L0pl0gXSFe1-54">
          <mxGeometry relative="1" as="geometry" />
        </mxCell>
        <mxCell id="5HY_IgYF3L0pl0gXSFe1-45" value="所在节点繁忙？" style="strokeWidth=2;html=1;shape=mxgraph.flowchart.decision;whiteSpace=wrap;" vertex="1" parent="1">
          <mxGeometry x="184" y="408.5" width="120" height="60" as="geometry" />
        </mxCell>
        <mxCell id="5HY_IgYF3L0pl0gXSFe1-46" value="Y" style="edgeLabel;html=1;align=center;verticalAlign=middle;resizable=0;points=[];" vertex="1" connectable="0" parent="1">
          <mxGeometry x="324" y="438.5" as="geometry" />
        </mxCell>
        <mxCell id="5HY_IgYF3L0pl0gXSFe1-47" value="" style="edgeStyle=orthogonalEdgeStyle;rounded=0;orthogonalLoop=1;jettySize=auto;html=1;" edge="1" parent="1" source="5HY_IgYF3L0pl0gXSFe1-48" target="5HY_IgYF3L0pl0gXSFe1-49">
          <mxGeometry relative="1" as="geometry" />
        </mxCell>
        <mxCell id="5HY_IgYF3L0pl0gXSFe1-48" value="busy=red" style="rounded=1;whiteSpace=wrap;html=1;absoluteArcSize=1;arcSize=14;strokeWidth=2;" vertex="1" parent="1">
          <mxGeometry x="352" y="413.5" width="100" height="50" as="geometry" />
        </mxCell>
        <mxCell id="5HY_IgYF3L0pl0gXSFe1-49" value="完成" style="strokeWidth=2;html=1;shape=mxgraph.flowchart.terminator;whiteSpace=wrap;" vertex="1" parent="1">
          <mxGeometry x="524" y="418.5" width="100" height="40" as="geometry" />
        </mxCell>
        <mxCell id="5HY_IgYF3L0pl0gXSFe1-51" value="不推荐再根据据节点状态影响调度逻辑&lt;div&gt;所有环境的配置都没有启用&lt;/div&gt;" style="shape=note;whiteSpace=wrap;html=1;backgroundOutline=1;darkOpacity=0.05;" vertex="1" parent="1">
          <mxGeometry x="720" y="389" width="240" height="100" as="geometry" />
        </mxCell>
        <mxCell id="5HY_IgYF3L0pl0gXSFe1-59" value="" style="edgeStyle=orthogonalEdgeStyle;rounded=0;orthogonalLoop=1;jettySize=auto;html=1;" edge="1" parent="1" source="5HY_IgYF3L0pl0gXSFe1-54" target="5HY_IgYF3L0pl0gXSFe1-56">
          <mxGeometry relative="1" as="geometry" />
        </mxCell>
        <mxCell id="5HY_IgYF3L0pl0gXSFe1-54" value="score=分配的ForkedServer数量 * 1000 / 最多分配ForkedServer数量 + 100" style="rounded=1;whiteSpace=wrap;html=1;absoluteArcSize=1;arcSize=14;strokeWidth=2;" vertex="1" parent="1">
          <mxGeometry x="184" y="520" width="416" height="50" as="geometry" />
        </mxCell>
        <mxCell id="5HY_IgYF3L0pl0gXSFe1-60" value="" style="edgeStyle=orthogonalEdgeStyle;rounded=0;orthogonalLoop=1;jettySize=auto;html=1;" edge="1" parent="1" source="5HY_IgYF3L0pl0gXSFe1-56" target="5HY_IgYF3L0pl0gXSFe1-57">
          <mxGeometry relative="1" as="geometry" />
        </mxCell>
        <mxCell id="5HY_IgYF3L0pl0gXSFe1-61" value="" style="edgeStyle=orthogonalEdgeStyle;rounded=0;orthogonalLoop=1;jettySize=auto;html=1;" edge="1" parent="1" source="5HY_IgYF3L0pl0gXSFe1-56" target="5HY_IgYF3L0pl0gXSFe1-58">
          <mxGeometry relative="1" as="geometry" />
        </mxCell>
        <mxCell id="5HY_IgYF3L0pl0gXSFe1-56" value="调度策略为Packed" style="strokeWidth=2;html=1;shape=mxgraph.flowchart.decision;whiteSpace=wrap;" vertex="1" parent="1">
          <mxGeometry x="332" y="600" width="120" height="60" as="geometry" />
        </mxCell>
        <mxCell id="5HY_IgYF3L0pl0gXSFe1-62" style="edgeStyle=orthogonalEdgeStyle;rounded=0;orthogonalLoop=1;jettySize=auto;html=1;exitX=0.5;exitY=1;exitDx=0;exitDy=0;entryX=1;entryY=0.5;entryDx=0;entryDy=0;entryPerimeter=0;" edge="1" parent="1" source="5HY_IgYF3L0pl0gXSFe1-57" target="5HY_IgYF3L0pl0gXSFe1-58">
          <mxGeometry relative="1" as="geometry">
            <mxPoint x="450" y="730" as="targetPoint" />
            <Array as="points">
              <mxPoint x="570" y="730" />
            </Array>
          </mxGeometry>
        </mxCell>
        <mxCell id="5HY_IgYF3L0pl0gXSFe1-57" value="score=-score" style="rounded=1;whiteSpace=wrap;html=1;absoluteArcSize=1;arcSize=14;strokeWidth=2;" vertex="1" parent="1">
          <mxGeometry x="519.5" y="605" width="100" height="50" as="geometry" />
        </mxCell>
        <mxCell id="5HY_IgYF3L0pl0gXSFe1-58" value="完成" style="strokeWidth=2;html=1;shape=mxgraph.flowchart.terminator;whiteSpace=wrap;" vertex="1" parent="1">
          <mxGeometry x="342" y="710" width="100" height="40" as="geometry" />
        </mxCell>
      </root>
    </mxGraphModel>
  </diagram>
</mxfile>
